<!DOCTYPE svg PUBLIC "-//W3C//DTD SVG 1.1//EN" "http://www.w3.org/Graphics/SVG/1.1/DTD/svg11.dtd">
<svg xmlns="http://www.w3.org/2000/svg" xmlns:xlink="http://www.w3.org/1999/xlink" version="1.1" width="1029" height="1351" overflow="auto" viewBox="0, 0, 1029, 1351" preserveAspectRatio="none" VVVVBackgroundColor="1;1;1;1">
  <path d="M0.07884216 24.39999 L0.07884216 -24.39999 z M0.07884216 -24.39999 L73.56885 -51.14999 z M73.56885 -51.14999 L73.56885 -98.84999 z M73.56885 -98.84999 L0.07884216 -125.6 z M0.07884216 174.4 L0.07884216 125.6 z M0.07884216 125.6 L73.56885 98.84999 z M73.56885 98.84999 L73.56885 51.14999 z M73.56885 51.14999 L0.07884216 24.39999 z M0.07884216 324.4 L0.07884216 275.6 z M0.07884216 275.6 L73.56885 248.85 z M73.56885 248.85 L73.56885 201.15 z M73.56885 201.15 L0.07885742 174.4 z M0.07884216 474.4 L0.07884216 425.6 z M0.07884216 425.6 L73.56885 398.85 z M73.56885 398.85 L73.56885 351.15 z M73.56885 351.15 L0.07885742 324.4 z M0.07884216 624.4 L0.07884216 575.6 z M0.07884216 575.6 L73.56885 548.85 z M73.56885 548.85 L73.56885 501.15 z M73.56885 501.15 L0.07885742 474.4 z M0.07884216 774.4 L0.07884216 725.6 z M0.07884216 725.6 L73.56885 698.85 z M73.56885 698.85 L73.56885 651.15 z M73.56885 651.15 L0.07885742 624.4 z M0.07884216 924.4 L0.07884216 875.6 z M0.07884216 875.6 L73.56885 848.85 z M73.56885 848.85 L73.56885 801.15 z M73.56885 801.15 L0.07885742 774.4 z M0.07884216 1074.4 L0.07884216 1025.6 z M0.07884216 1025.6 L73.56885 998.85 z M73.56885 998.85 L73.56885 951.15 z M73.56885 951.15 L0.07885742 924.4 z M0.07884216 1224.4 L0.07884216 1175.6 z M0.07884216 1175.6 L73.56885 1148.85 z M73.56885 1148.85 L73.56885 1101.15 z M73.56885 1101.15 L0.07884216 1074.4 z M302.5812 207.5437 L261.625 228.4125 L261.75 234.6812 L262.1812 242.9312 L262.9063 251.0313 L263.925 258.9812 L265.2625 266.775 L266.95 274.3625 L269.0125 281.7312 L271.5 288.8438 L272.9625 292.275 L274.625 295.575 L275.625 299.2813 L275.975 301.2437 L276.025 303.3937 L274.4625 306.5938 L238.9125 332.425 L235.3812 332.925 L233.35 332.2 L231.6 331.275 L228.3812 329.1625 L225.75 326.575 L222.9437 324.125 L216.95 319.5562 L210.575 315.325 L203.875 311.375 L196.8937 307.6937 L189.6437 304.2625 L182.1563 301.075 L174.4437 298.1125 L168.525 296.0562 L136.0125 328.5562 L138.0812 334.4812 L141.0313 342.1937 L144.225 349.6812 L147.6563 356.925 L151.3312 363.9125 L155.2813 370.6125 L159.525 376.9937 L164.0938 382.9812 L166.5313 385.7937 L169.1312 388.4125 L171.2312 391.6312 L172.175 393.3937 L172.8812 395.4125 L172.3812 398.9437 L146.5625 434.4937 L143.35 436.0625 L141.2 436.0125 L139.25 435.6563 L135.5313 434.6563 L132.2312 432.9937 L128.8125 431.5437 L121.7 429.0437 L114.325 426.9812 L106.7312 425.3062 L98.95 423.9625 L91 422.9312 L82.89374 422.2125 L74.64374 421.7813 L68.375 421.6563 L47.5 462.6125 L51.29375 467.6125 L56.49374 474.0313 L61.84375 480.1625 L67.34375 486 L73 491.5 L78.825 496.6625 L84.825 501.4125 L91.02499 505.7 L94.21249 507.6125 L97.49374 509.3125 L100.4937 511.725 L101.925 513.1 L103.2312 514.8125 L103.8438 518.325 L95.53749 543.8937 L94.90625 545.8375 L90.27499 560.1125 L87.7 562.5938 L85.64374 563.2 L83.68124 563.475 L79.83124 563.6625 L76.18124 563.1125 L72.47499 562.7813 L64.94374 562.6125 L57.29375 562.9312 L49.55624 563.675 L41.73125 564.8062 L33.84999 566.2813 L25.92499 568.1 L17.95 570.2437 L11.94374 572.0625 L4.75 617.4625 L9.90625 621.0437 L16.825 625.5437 L23.8125 629.7312 L30.84375 633.575 L37.93124 637.0625 L45.0625 640.1625 L52.23125 642.8312 L59.45 644.9937 L63.08124 645.8312 L66.72499 646.425 L70.325 647.7937 L72.11249 648.6625 L73.88124 649.8812 L75.55624 653.0313 L75.55624 673.1312 L75.46249 675 L75.55624 677.65 L75.55624 696.975 L73.88124 700.125 L72.11249 701.3438 L70.325 702.2125 L66.72499 703.5812 L63.08124 704.175 L59.45 705.0125 L52.23125 707.175 L45.0625 709.8438 L37.93124 712.9437 L30.84375 716.4312 L23.8125 720.275 L16.825 724.4625 L9.90625 728.9625 L4.75 732.5437 L11.94374 777.9437 L17.95 779.7625 L25.92499 781.9063 L33.84999 783.725 L41.73125 785.2 L49.55624 786.3312 L57.29375 787.075 L64.94374 787.3937 L72.47499 787.225 L76.18124 786.8937 L79.83124 786.3438 L83.68124 786.5313 L85.64374 786.8062 L87.7 787.4125 L90.27499 789.8937 L103.8438 831.6812 L103.2312 835.1937 L101.925 836.9063 L100.4937 838.2813 L97.49374 840.6937 L94.21249 842.3937 L91.02499 844.3062 L84.825 848.5938 L78.825 853.3438 L73 858.5 L67.34375 864 L61.84375 869.8438 L56.49374 875.975 L51.29375 882.3937 L47.5 887.3937 L68.375 928.35 L74.64374 928.225 L82.89374 927.7938 L91 927.075 L98.95 926.0438 L106.7312 924.7 L114.325 923.025 L121.7 920.9625 L128.8125 918.4625 L132.2312 917.0125 L135.5313 915.35 L139.25 914.35 L141.2 913.9937 L143.35 913.9437 L146.5625 915.5125 L172.3812 951.0625 L172.8812 954.5938 L172.175 956.6125 L171.2312 958.375 L169.1312 961.5938 L166.5313 964.2125 L164.0938 967.025 L159.525 973.0125 L155.2813 979.3937 L151.3312 986.0938 L147.6563 993.0812 L144.225 1000.325 L141.0313 1007.813 L138.0812 1015.525 L136.0125 1021.45 L168.525 1053.95 L174.4437 1051.894 L182.1563 1048.931 L189.6437 1045.744 L196.8937 1042.313 L203.875 1038.631 L210.575 1034.681 L216.95 1030.45 L222.9437 1025.881 L225.75 1023.431 L228.3812 1020.844 L231.6 1018.731 L233.35 1017.806 L235.3812 1017.081 L238.9125 1017.581 L274.4625 1043.412 L276.025 1046.612 L275.975 1048.762 L275.625 1050.725 L274.625 1054.431 L272.9625 1057.731 L271.5 1061.162 L269.0125 1068.275 L266.95 1075.644 L265.2625 1083.231 L263.925 1091.025 L262.9063 1098.975 L262.1812 1107.075 L261.75 1115.325 L261.625 1121.594 L302.5812 1142.462 L307.575 1138.675 L314 1133.481 L320.1312 1128.131 L325.9625 1122.631 L331.475 1116.975 L336.625 1111.144 L341.3812 1105.144 L345.6625 1098.944 L347.5812 1095.75 L349.275 1092.475 L351.6937 1089.481 L353.0625 1088.044 L354.775 1086.744 L358.2813 1086.119 L361.5625 1086.287 L370.7937 1089.65 L380.0875 1092.8 L389.4375 1095.737 L398.85 1098.469 L408.3187 1100.981 L417.8312 1103.287 L427.3937 1105.381 L437 1107.256 L446.6437 1108.919 L456.325 1110.369 L466.0375 1111.6 L475.7813 1112.619 L485.55 1113.419 L495.3375 1114 L505.1437 1114.362 L514.9625 1114.506 L526.3062 1114.362 L537.5812 1113.931 L548.775 1113.225 L559.9 1112.237 L570.9375 1110.975 L581.8937 1109.444 L592.7625 1107.644 L603.5375 1105.575 L614.2188 1103.25 L624.8 1100.669 L635.2813 1097.831 L645.6563 1094.744 L655.925 1091.412 L666.0812 1087.837 L676.1187 1084.019 L686.0375 1079.969 L695.8312 1075.681 L705.5062 1071.169 L715.0437 1066.425 L724.4562 1061.462 L733.725 1056.275 L742.8625 1050.875 L751.85 1045.262 L760.6937 1039.444 L769.3875 1033.419 L777.925 1027.194 L786.3062 1020.763 L794.525 1014.144 L802.5812 1007.331 L810.475 1000.331 L818.1937 993.1437 L825.7375 985.775 L833.1063 978.2313 L840.2875 970.5125 L847.2938 962.625 L854.1063 954.5687 L860.725 946.3438 L867.15 937.9625 L873.3812 929.425 L879.4063 920.7313 L885.225 911.8875 L890.8375 902.9 L896.2375 893.7687 L901.4188 884.4937 L906.3812 875.0875 L911.125 865.5438 L915.6437 855.875 L919.925 846.075 L923.9813 836.1563 L927.8 826.1187 L931.375 815.9625 L934.7062 805.6937 L937.7938 795.3187 L940.6312 784.8375 L943.2125 774.2562 L945.5375 763.575 L947.6 752.8 L949.4063 741.9312 L950.9375 730.975 L952.2 719.9375 L953.1875 708.8125 L953.8937 697.6187 L954.325 686.3438 L954.4688 675 L954.325 663.6563 L953.8937 652.3812 L953.1875 641.1875 L952.2 630.0625 L950.9375 619.025 L949.4063 608.0687 L947.6 597.2 L945.5375 586.425 L943.2125 575.7437 L940.6312 565.1625 L937.7938 554.6812 L934.7062 544.3062 L931.375 534.0437 L927.8 523.8875 L923.9813 513.85 L919.925 503.9312 L915.6437 494.1313 L911.125 484.4625 L906.3812 474.9187 L901.4188 465.5125 L896.2375 456.2375 L890.8375 447.1062 L885.225 438.1187 L879.4063 429.275 L873.3812 420.5812 L867.15 412.0437 L860.725 403.6625 L854.1063 395.4375 L847.2938 387.3812 L840.2875 379.4937 L833.1063 371.775 L825.7375 364.2312 L818.1937 356.8625 L810.475 349.675 L802.5812 342.675 L794.525 335.8625 L786.3062 329.2375 L777.925 322.8125 L769.3875 316.5875 L760.6937 310.5625 L751.85 304.7375 L742.8625 299.1312 L733.725 293.7312 L724.4562 288.5437 L715.0437 283.5812 L705.5062 278.8375 L695.8312 274.325 L686.0375 270.0375 L676.1187 265.9875 L666.0812 262.1687 L655.925 258.5938 L645.6563 255.2625 L635.2813 252.175 L624.8 249.3375 L614.2188 246.7562 L603.5375 244.4312 L592.7625 242.3625 L581.8937 240.5625 L570.9375 239.0313 L559.9 237.7688 L548.775 236.7813 L537.5812 236.075 L526.3062 235.6438 L514.9625 235.5 L505.125 235.625 L495.2937 235.975 L485.4875 236.5375 L475.7 237.325 L465.9375 238.325 L456.2 239.5437 L446.5 240.9812 L436.8312 242.6312 L427.2062 244.5 L417.6187 246.5813 L408.0812 248.875 L398.5938 251.3875 L389.1563 254.1062 L379.7813 257.0437 L370.4625 260.1875 L361.2125 263.5437 L358.2813 263.8812 L354.775 263.2625 L353.0625 261.9625 L351.6937 260.525 L349.275 257.5313 L347.5812 254.25 L345.6625 251.0625 L341.3812 244.8625 L336.625 238.8625 L331.475 233.0313 L325.9625 227.375 L320.1312 221.875 L314 216.525 L307.575 211.3313 L302.5812 207.5437 z M564 675 L563.9375 677.575 L563.7437 680.1125 L563.425 682.6125 L562.9812 685.075 L562.425 687.5 L561.75 689.8687 L560.9688 692.1937 L560.0687 694.4625 L559.0687 696.6812 L557.9688 698.8375 L556.7625 700.9312 L555.4625 702.9562 L554.0687 704.9187 L552.5812 706.8062 L551.0125 708.6187 L549.3562 710.3562 L547.6187 712.0125 L545.8062 713.5812 L543.9187 715.0687 L541.9562 716.4625 L539.9312 717.7625 L537.8312 718.9625 L535.6812 720.0687 L533.4625 721.0687 L531.1937 721.9625 L528.8687 722.75 L526.4937 723.425 L524.075 723.9812 L521.6125 724.425 L519.1125 724.7375 L516.5687 724.9312 L514 725 L511.425 724.9375 L508.8875 724.7437 L506.3875 724.425 L503.925 723.9812 L501.5063 723.425 L499.1313 722.75 L496.8062 721.9688 L494.5375 721.0687 L492.325 720.0687 L490.1687 718.9688 L488.075 717.7625 L486.0437 716.4625 L484.0875 715.0687 L482.1938 713.5812 L480.3813 712.0125 L478.6437 710.3562 L476.9875 708.6187 L475.4187 706.8062 L473.9312 704.9187 L472.5375 702.9562 L471.2375 700.9312 L470.0375 698.8312 L468.9312 696.6812 L467.9312 694.4625 L467.0313 692.1937 L466.25 689.8687 L465.575 687.4937 L465.0187 685.075 L464.575 682.6125 L464.2563 680.1125 L464.0625 677.5687 L464 675 L464.0625 672.425 L464.2563 669.8875 L464.575 667.3875 L465.0187 664.925 L465.575 662.5062 L466.25 660.1312 L467.0313 657.8062 L467.9312 655.5375 L468.9312 653.325 L470.0375 651.1687 L471.2375 649.075 L472.5375 647.0437 L473.9312 645.0875 L475.4187 643.1937 L476.9875 641.3812 L478.6437 639.6437 L480.3813 637.9875 L482.1938 636.4187 L484.0875 634.9312 L486.0437 633.5375 L488.075 632.2375 L490.1687 631.0375 L492.325 629.9312 L494.5375 628.9312 L496.8062 628.0313 L499.1313 627.25 L501.5063 626.575 L503.925 626.0187 L506.3875 625.575 L508.8875 625.2562 L511.425 625.0625 L514 625 L516.575 625.0625 L519.1125 625.2562 L521.6125 625.575 L524.075 626.0187 L526.5 626.575 L528.8687 627.25 L531.1937 628.0313 L533.4625 628.9312 L535.6812 629.9312 L537.8375 631.0375 L539.9312 632.2375 L541.9562 633.5375 L543.9187 634.9312 L545.8062 636.4187 L547.6187 637.9875 L549.3562 639.6437 L551.0125 641.3812 L552.5812 643.1937 L554.0687 645.0875 L555.4625 647.0437 L556.7625 649.075 L557.9625 651.1687 L559.0687 653.325 L560.0687 655.5375 L560.9625 657.8062 L561.75 660.1312 L562.425 662.5062 L562.9812 664.925 L563.425 667.3875 L563.7375 669.8875 L563.9312 672.425 L564 675 z M1032.48 24.39999 L1032.48 -24.39999 z M1032.48 174.4 L1032.48 125.6 z M1032.48 125.6 L958.9899 98.84999 z M958.9899 98.84999 L958.9899 51.14999 z M958.9899 51.14999 L1032.48 24.39999 z M1032.48 324.4 L1032.48 275.6 z M1032.48 275.6 L958.9899 248.85 z M958.9899 248.85 L958.9899 201.15 z M958.9899 201.15 L1032.48 174.4 z M1032.48 474.4 L1032.48 425.6 z M1032.48 425.6 L958.9899 398.85 z M958.9899 398.85 L958.9899 351.15 z M958.9899 351.15 L1032.48 324.4 z M1032.48 624.4 L1032.48 575.6 z M1032.48 575.6 L958.9899 548.85 z M958.9899 548.85 L958.9899 501.15 z M958.9899 501.15 L1032.48 474.4 z M1032.48 774.4 L1032.48 725.6 z M1032.48 725.6 L958.9899 698.85 z M958.9899 698.85 L958.9899 651.15 z M958.9899 651.15 L1032.48 624.4 z M1032.48 924.4 L1032.48 875.6 z M1032.48 875.6 L958.9899 848.85 z M958.9899 848.85 L958.9899 801.15 z M958.9899 801.15 L1032.48 774.4 z M1032.48 1074.4 L1032.48 1025.6 z M1032.48 1025.6 L958.9899 998.85 z M958.9899 998.85 L958.9899 951.15 z M958.9899 951.15 L1032.48 924.4 z M1032.48 1224.4 L1032.48 1175.6 z M1032.48 1175.6 L958.9899 1148.85 z M958.9899 1148.85 L958.9899 1101.15 z M958.9899 1101.15 L1032.48 1074.4 z M1032.48 1325.6 L958.9899 1298.85 z M958.9899 1298.85 L958.9899 1251.15 z M958.9899 1251.15 L1032.48 1224.4 z M1032.48 1330.964 L1032.48 1648.678 L0.07885742 1648.678 L0.07885742 1227.922 z M0.07885742 -127.4424 L0.07885742 -445.1564 L1032.48 -445.1564 L1032.48 -24.39996 z M-171.7373 -606.8051 L1196.436 -606.8051 L1196.436 1780.343 L-171.7373 1780.343 z" pathLength="0" fill="#FFFFFF" stroke="#000000" stroke-width="0.1" transform="translate(0, 0) rotate(0, 0, 0)" />
</svg>